<?xml version="1.0" encoding="UTF-8" standalone="no"?>
<!-- Generator: Adobe Illustrator 23.0.4, SVG Export Plug-In . SVG Version: 6.00 Build 0)  -->

<svg
   version="1.1"
   id="Calque_1"
   x="0px"
   y="0px"
   viewBox="0 0 359.99998 79.999997"
   xml:space="preserve"
   sodipodi:docname="kuartz.svg"
   width="360"
   height="80"
   inkscape:version="1.1.1 (3bf5ae0d25, 2021-09-20)"
   xmlns:inkscape="http://www.inkscape.org/namespaces/inkscape"
   xmlns:sodipodi="http://sodipodi.sourceforge.net/DTD/sodipodi-0.dtd"
   xmlns="http://www.w3.org/2000/svg"
   xmlns:svg="http://www.w3.org/2000/svg"
   xmlns:rdf="http://www.w3.org/1999/02/22-rdf-syntax-ns#"
   xmlns:cc="http://creativecommons.org/ns#"
   xmlns:dc="http://purl.org/dc/elements/1.1/"><metadata
   id="metadata29"><rdf:RDF><cc:Work
       rdf:about=""><dc:format>image/svg+xml</dc:format><dc:type
         rdf:resource="http://purl.org/dc/dcmitype/StillImage" /></cc:Work></rdf:RDF></metadata><defs
   id="defs27" /><sodipodi:namedview
   pagecolor="#ffffff"
   bordercolor="#666666"
   borderopacity="1"
   objecttolerance="10"
   gridtolerance="10"
   guidetolerance="10"
   inkscape:pageopacity="0"
   inkscape:pageshadow="2"
   inkscape:window-width="1920"
   inkscape:window-height="1019"
   id="namedview25"
   showgrid="false"
   fit-margin-top="0"
   fit-margin-left="0"
   fit-margin-bottom="0"
   fit-margin-right="0"
   inkscape:zoom="1.5857387"
   inkscape:cx="68.42237"
   inkscape:cy="3.4684151"
   inkscape:window-x="0"
   inkscape:window-y="24"
   inkscape:window-maximized="1"
   inkscape:current-layer="g22"
   inkscape:pagecheckerboard="0"
   inkscape:snap-page="true" />
<style
   type="text/css"
   id="style2">
	.st0{fill:#22234C;}
	.st1{fill:#E23D55;}
</style>
<g
   id="g22"
   transform="translate(-113.2769,-403.30983)">
	
	
	<g
   id="g895"
   transform="translate(2.1384476,5.2899151)"><g
     id="g16"
     style="fill:#22234c;fill-opacity:1">
		<g
   id="g14"
   style="fill:#22234c;fill-opacity:1">
			<path
   class="st0"
   d="m 272.43,420.12 h -9.5 c -0.92,0 -1.67,0.76 -1.67,1.68 v 27.96 c 0,6.55 -4.17,10.95 -10.38,10.95 -3.32,0 -7.75,-0.96 -7.75,-9.25 V 421.8 c 0,-0.91 -0.74,-1.68 -1.67,-1.68 h -9.5 c -0.92,0 -1.67,0.76 -1.67,1.68 v 31.44 c 0,11.73 7.16,19.29 18.24,19.29 5,0 9.35,-1.58 12.83,-4.61 v 2.1 c 0,0.92 0.75,1.67 1.67,1.67 h 9.41 c 0.93,0 1.68,-0.75 1.68,-1.67 V 421.8 c -0.01,-0.91 -0.76,-1.68 -1.69,-1.68 z"
   id="path4"
   inkscape:connector-curvature="0"
   style="fill:#22234c;fill-opacity:1" />
			<path
   class="st0"
   d="m 311.63,419.19 c -10.06,0 -21.81,4.57 -21.81,17.48 0,0.92 0.74,1.67 1.67,1.67 h 8.76 c 0.91,0 1.67,-0.75 1.67,-1.67 0,-1.73 0,-6.99 10.19,-6.99 8.02,0 9.04,3.84 9.04,7.18 v 1.83 c -8.37,-0.19 -15.6,0.9 -21.05,3.33 -7.21,3.32 -10.86,8.45 -10.86,15.29 0,9.22 6.88,15.42 17.12,15.42 5.71,0 10.66,-1.74 14.79,-5.16 v 2.44 c 0,0.92 0.76,1.67 1.68,1.67 h 8.66 c 0.93,0 1.67,-0.75 1.67,-1.67 v -32.58 c 0,-11.43 -8.04,-18.24 -21.53,-18.24 z m 9.52,29.02 v 6.98 c -2.82,4.24 -7.16,6.74 -11.95,6.76 -2.02,0 -6.73,-0.53 -6.73,-5.41 0,-3.19 2.51,-5.1 4.63,-6.12 2.94,-1.48 7.11,-2.28 11.78,-2.28 0.76,0.01 1.52,0.02 2.27,0.07 z"
   id="path6"
   inkscape:connector-curvature="0"
   style="fill:#22234c;fill-opacity:1" />
			<path
   class="st0"
   d="m 377.16,420.19 c -1.97,-0.55 -3.69,-0.81 -5.24,-0.81 -3.71,0 -7.11,1.38 -9.72,3.85 v -1.43 c 0,-0.91 -0.74,-1.68 -1.67,-1.68 h -9.32 c -0.92,0 -1.68,0.76 -1.68,1.68 v 48.22 c 0,0.92 0.76,1.67 1.68,1.67 h 9.52 c 0.92,0 1.67,-0.75 1.67,-1.67 v -27.5 c 0,-5.5 2.68,-11.04 8.68,-11.04 1.13,0 2.35,0.22 3.83,0.68 0.17,0.04 0.34,0.07 0.5,0.07 h 1.33 c 0.92,0 1.67,-0.75 1.67,-1.67 v -8.75 c -0.01,-0.76 -0.52,-1.43 -1.25,-1.62 z"
   id="path8"
   inkscape:connector-curvature="0"
   style="fill:#22234c;fill-opacity:1" />
			<path
   class="st0"
   d="m 414.68,420.12 h -9.53 v -9.44 c 0,-0.91 -0.75,-1.67 -1.68,-1.67 h -9.42 c -0.91,0 -1.67,0.75 -1.67,1.67 v 9.44 H 387 c -0.93,0 -1.67,0.76 -1.67,1.68 v 7.15 c 0,0.92 0.74,1.67 1.67,1.67 h 5.39 v 26.76 c 0,9.36 4.74,14.3 13.72,14.3 h 8.56 c 0.92,0 1.68,-0.75 1.68,-1.67 v -7.63 c 0,-0.93 -0.76,-1.67 -1.68,-1.67 h -4.99 c -3.4,0 -4.53,-0.8 -4.53,-5.49 v -24.6 h 9.53 c 0.92,0 1.68,-0.76 1.68,-1.67 v -7.15 c 0,-0.91 -0.76,-1.68 -1.68,-1.68 z"
   id="path10"
   inkscape:connector-curvature="0"
   style="fill:#22234c;fill-opacity:1" />
			<path
   class="st0"
   d="m 469,429.23 v -7.43 c 0,-0.91 -0.75,-1.68 -1.67,-1.68 h -38.14 c -0.93,0 -1.67,0.76 -1.67,1.68 v 7.82 c 0,0.92 0.75,1.67 1.67,1.67 h 23.29 l -25.34,30.78 c -0.24,0.31 -0.38,0.68 -0.38,1.07 v 6.88 c 0,0.92 0.75,1.67 1.67,1.67 h 38.69 c 0.93,0 1.68,-0.75 1.68,-1.67 v -7.92 c 0,-0.92 -0.75,-1.66 -1.68,-1.66 h -23.19 l 24.68,-30.14 c 0.25,-0.29 0.39,-0.68 0.39,-1.07 z"
   id="path12"
   inkscape:connector-curvature="0"
   style="fill:#22234c;fill-opacity:1" />
		</g>
	</g><path
     class="st0"
     d="m 196.19,433.38 25.19,-27.11 c 0.45,-0.48 0.57,-1.19 0.31,-1.8 -0.27,-0.61 -0.87,-1 -1.54,-1 h -12.52 c -0.47,0 -0.93,0.2 -1.25,0.55 l -33.13,36.74 c -0.27,0.31 -0.49,0.94 0.05,1.57 0,0 5.87,5.87 6.37,6.35 0.74,0.68 1.26,0.63 2.04,-0.11 l 5.75,-5.91 21.38,28.35 c 0.32,0.42 0.82,0.67 1.34,0.67 h 12.62 c 0.02,-0.01 0.05,-0.01 0.08,0 0.93,0 1.68,-0.75 1.68,-1.67 0,-0.56 -0.28,-1.07 -0.69,-1.37 z"
     id="path18"
     inkscape:connector-curvature="0"
     style="fill:#22234c;fill-opacity:1" /><path
     class="st1"
     d="m 171.58,456.5 c -0.48,-0.53 -6.09,-6.68 -6.5,-7.13 -0.41,-0.44 -1.08,-0.54 -1.64,-0.01 -0.56,0.53 -7.42,7.06 -7.42,7.06 l -28.65,-27.24 11.31,-13.48 h 34.68 c 0,0 2.45,3.04 2.95,3.54 0.71,0.71 1.4,0.54 2.01,-0.09 0.41,-0.43 5.9,-6.37 6.21,-6.82 0.66,-0.96 0.74,-1.2 0.02,-2.1 -0.47,-0.59 -4.31,-5.09 -4.31,-5.09 -1.08,-0.89 -1.63,-1.49 -2.86,-1.73 -1.05,-0.11 -1.2,-0.11 -1.33,-0.09 h -40.06 c -0.13,-0.01 -0.28,-0.02 -1.33,0.09 -1.23,0.24 -1.79,0.84 -2.86,1.73 l -16.62,19.61 c -1.07,1.37 -1.89,2.84 -1.9,4.47 -0.06,1.67 0.76,3.22 1.79,4.61 0,0 34.42,33.29 38.3,36.88 l -0.01,0.03 c 0.15,0.16 0.46,0.41 0.88,0.63 0.48,0.28 0.95,0.41 1.4,0.43 0.07,0 0.13,0.02 0.2,0.02 0.07,0 0.12,-0.01 0.19,-0.02 0.06,0 0.12,0.02 0.19,0.02 0.07,0 0.13,-0.01 0.2,-0.02 0.45,-0.02 0.92,-0.15 1.4,-0.43 0.41,-0.22 0.73,-0.47 0.88,-0.63 l -0.01,-0.03 c 1.39,-1.29 6.75,-6.49 13.02,-12.54 0.61,-0.7 0.35,-1.13 -0.13,-1.67 z"
     id="path20"
     inkscape:connector-curvature="0"
     style="fill:#e23d55;fill-opacity:1" /></g>
</g>
</svg>
